<?xml version="1.0" encoding="utf-8"?>
<!-- Generator: Adobe Illustrator 22.1.0, SVG Export Plug-In . SVG Version: 6.00 Build 0)  -->
<svg version="1.1" id="Layer_1" xmlns="http://www.w3.org/2000/svg" xmlns:xlink="http://www.w3.org/1999/xlink" x="0px" y="0px"
	 viewBox="0 0 288 284" style="enable-background:new 0 0 288 284;" xml:space="preserve">
<style type="text/css">
	.st0{fill:#5E5C5C;stroke:#000000;stroke-miterlimit:10;}
	.st1{fill:none;stroke:#3A3939;stroke-miterlimit:10;}
	.st2{opacity:0.86;fill:#ACDAE5;stroke:#FFFFFF;stroke-width:3;stroke-miterlimit:10;enable-background:new    ;}
	.st3{fill:#F4F4F4;}
	.st4{fill:#F9F9F9;}
	.st5{fill:#C6C4C5;stroke:#666464;stroke-miterlimit:10;}
	.st6{fill:#FCFAFB;}
	.st7{fill:none;}
	.st8{fill:#020202;}
	.st9{font-family:'MyriadPro-Regular';}
	.st10{font-size:26px;}
	.st11{fill:#FFFFFF;}
	.st12{opacity:0.13;fill:#6EF4B7;enable-background:new    ;}
	.st13{opacity:0.1;fill:#E5F2B6;enable-background:new    ;}
</style>
<circle class="st0" cx="144.2" cy="142.2" r="138.4"/>
<ellipse class="st1" cx="144.2" cy="142.2" rx="126.1" ry="123.7"/>
<ellipse class="st1" cx="144.2" cy="142.2" rx="117" ry="114.7"/>
<ellipse class="st1" cx="144.2" cy="142.2" rx="102.3" ry="100.3"/>
<ellipse class="st1" cx="144.2" cy="142.2" rx="80.1" ry="78.5"/>
<circle class="st2" cx="144.2" cy="142.2" r="71.3"/>
<path class="st3" d="M99.3,190.6l1.7,1.7l0.5,0.5c0,0,13.7,17.4,29,0.2l3.9-13.4c0,0,1.3-6.5,7-6.4l1.6-0.4c0,0,2.1-4.8-5.4-9.1
	c0,0-2.7-3,1.2-8.2c3.8-5.2,40.2-42.3,40.2-42.3s2.8-2,6.4-0.5l2.1-1.5l1.5,1.5l0.3,1.7l0.5,0.5l2.6-2.7l-2.9-0.4l-1-1.2
	c0,0,4.2-4.4,5-4.2s1.6,1.6,1.6,1.6l0,1.6l0.7,0.5l3.1-2.9l-0.9-0.9l-2.3,0.3l-1.2-1.2l4.6-3.6c0,0,1-2.5-2.5-2.6
	c-3.5,0-8-3.3-8-3.3l-2.1,2.1l-0.7-2.4l-2.5,2.5l2.1,0.5l-4.7,3.9l-0.8-1l0.6-0.6l-1-0.8l-2.6,2.6l0.8,0.2l1.5,0.5l-1.8,1.6
	c0,0,1.6,2.5-2.4,5.2l-39.5,37.9l0.5-4.6c0,0-0.6-4.7-5.2-5l-2.8,0.4l-0.6,2.6l-7.9,7.8c0,0-0.3,6.6-6,8.1c0,0-11.5-1.6-17.4,10.1
	C90.1,179,99.3,189,99.3,189l-0.4,0.4L99.3,190.6z"/>
<path d="M100.2,191.5l1.7,1.7l0.5,0.5c0,0,13.7,17.4,29,0.2l3.9-13.4c0,0,1.3-6.5,7-6.4l1.6-0.4c0,0,2.1-4.8-5.4-9.1
	c0,0-2.7-3,1.2-8.2c3.8-5.2,40.2-42.3,40.2-42.3s2.8-2,6.4-0.5l2.1-1.5l1.5,1.5l0.3,1.7l0.5,0.5l2.6-2.7l-2.9-0.4l-1-1.2
	c0,0,4.2-4.4,5-4.2s1.6,1.6,1.6,1.6l0,1.6l0.7,0.5l3.1-2.9l-0.9-0.9l-2.3,0.3l-1.2-1.2l4.6-3.6c0,0,1-2.5-2.5-2.6
	c-3.5,0-8-3.3-8-3.3l-2.1,2.1l-0.7-2.4l-2.5,2.5l2.1,0.5l-4.7,3.9l-0.8-1l0.6-0.6l-1-0.8l-2.6,2.6l0.8,0.2l1.5,0.5l-1.8,1.6
	c0,0,1.6,2.5-2.4,5.2l-39.5,37.9l0.5-4.6c0,0-0.6-4.7-5.2-5l-2.8,0.4l-0.6,2.6l-7.9,7.8c0,0-0.3,6.6-6,8.1c0,0-11.5-1.6-17.4,10.1
	c-5.9,11.7,3.3,21.7,3.3,21.7l-0.4,0.4L100.2,191.5z"/>
<circle class="st4" cx="144.2" cy="142.5" r="6.4"/>
<circle class="st5" cx="144.2" cy="142.5" r="4.3"/>
<circle class="st6" cx="145.6" cy="141.2" r="1.4"/>
<rect x="89.9" y="100.6" class="st7" width="99.8" height="26.5"/>
<polyline class="st8" points="19.1,110.6 18.1,112.8 18.1,117.1 "/>
<text transform="matrix(1 0 0 1 94.0494 122.351)" class="st9 st10">Bass</text>
<text transform="matrix(1 0 0 1 96.1999 122.3509)" class="st11 st9 st10">Bass</text>
<ellipse class="st12" cx="198.3" cy="85.2" rx="62.6" ry="57.6"/>
<ellipse class="st13" cx="82.2" cy="179" rx="66.2" ry="55.6"/>
<polygon class="st7" points="138.3,89.3 140.7,89.3 140.7,89.3 138.3,89.3 "/>
</svg>
