<?xml version="1.0" encoding="utf-8"?>
<!-- Generator: Adobe Illustrator 22.1.0, SVG Export Plug-In . SVG Version: 6.00 Build 0)  -->
<svg version="1.1" id="Layer_1" xmlns="http://www.w3.org/2000/svg" xmlns:xlink="http://www.w3.org/1999/xlink" x="0px" y="0px"
	 viewBox="0 0 560 288" style="enable-background:new 0 0 560 288;" xml:space="preserve">
<style type="text/css">
	.st0{fill:#383838;}
	.st1{fill:url(#SVGID_1_);}
	.st2{fill:#444343;}
	.st3{fill:url(#SVGID_2_);}
	.st4{fill:url(#SVGID_3_);}
	.st5{clip-path:url(#SVGID_5_);fill:#FFFFFF;}
	.st6{clip-path:url(#SVGID_7_);}
	.st7{fill:#383838;stroke:#474644;stroke-miterlimit:10;}
	.st8{fill:#DDDDDD;stroke:#474644;stroke-miterlimit:10;}
	.st9{fill:#FFFFFF;}
	.st10{fill:#F9F9F9;stroke:#828181;stroke-width:0.5;stroke-miterlimit:10;}
	.st11{fill:none;}
	.st12{font-family:'MyriadPro-Regular';}
	.st13{font-size:23px;}
</style>
<g>
	<path class="st0" d="M422.6,216.9H136.2c-1.1,0-2-0.9-2-2V73.2c0-1.1,0.9-2,2-2h286.3c1.1,0,2,0.9,2,2v141.7
		C424.6,216,423.7,216.9,422.6,216.9z"/>
	<linearGradient id="SVGID_1_" gradientUnits="userSpaceOnUse" x1="160.4" y1="134.15" x2="398.5" y2="134.15">
		<stop  offset="0" style="stop-color:#C7B299"/>
		<stop  offset="1.339685e-03" style="stop-color:#C4B097"/>
		<stop  offset="2.448532e-02" style="stop-color:#9B8B77"/>
		<stop  offset="4.953992e-02" style="stop-color:#776A5C"/>
		<stop  offset="7.772970e-02" style="stop-color:#574D43"/>
		<stop  offset="0.1089" style="stop-color:#3B352E"/>
		<stop  offset="0.1441" style="stop-color:#25211D"/>
		<stop  offset="0.1852" style="stop-color:#141210"/>
		<stop  offset="0.236" style="stop-color:#090807"/>
		<stop  offset="0.3073" style="stop-color:#020201"/>
		<stop  offset="0.5051" style="stop-color:#000000"/>
		<stop  offset="0.6545" style="stop-color:#020202"/>
		<stop  offset="0.7272" style="stop-color:#0A0908"/>
		<stop  offset="0.7834" style="stop-color:#171412"/>
		<stop  offset="0.8312" style="stop-color:#292520"/>
		<stop  offset="0.8735" style="stop-color:#423B32"/>
		<stop  offset="0.912" style="stop-color:#5F5549"/>
		<stop  offset="0.9477" style="stop-color:#837565"/>
		<stop  offset="0.9802" style="stop-color:#AB9983"/>
		<stop  offset="1" style="stop-color:#C7B299"/>
	</linearGradient>
	<path class="st1" d="M396.5,183.8H162.4c-1.1,0-2-0.9-2-2V86.5c0-1.1,0.9-2,2-2h234.1c1.1,0,2,0.9,2,2v95.3
		C398.5,182.9,397.6,183.8,396.5,183.8z"/>
	<path class="st2" d="M372.7,216.9H186.2c-1.7,0-3.1-1.1-3.1-2.4l3.1-30.1c0-1.3-1.7,0,0,0h186.5c1.7,0,0,0,0,0l3.1,30.1
		C375.8,215.8,374.4,216.9,372.7,216.9z"/>
	<linearGradient id="SVGID_2_" gradientUnits="userSpaceOnUse" x1="160.3" y1="168.25" x2="398.4266" y2="168.25">
		<stop  offset="7.435898e-02" style="stop-color:#C1272D"/>
		<stop  offset="0.1513" style="stop-color:#CD1F24"/>
		<stop  offset="0.402" style="stop-color:#F1090A"/>
		<stop  offset="0.5359" style="stop-color:#FF0000"/>
		<stop  offset="0.5828" style="stop-color:#F80505"/>
		<stop  offset="0.8572" style="stop-color:#D01D22"/>
		<stop  offset="1" style="stop-color:#C1272D"/>
	</linearGradient>
	<path class="st3" d="M398.1,175.5H160.6c-0.2,0-0.3-0.1-0.3-0.3V163c0-1.1,0.9-2,2-2h234.1c1.1,0,2,0.9,2,2v12.1
		C398.5,175.3,398.3,175.5,398.1,175.5z"/>
	<linearGradient id="SVGID_3_" gradientUnits="userSpaceOnUse" x1="160.4" y1="179.7" x2="398.5" y2="179.7">
		<stop  offset="0" style="stop-color:#C7B299"/>
		<stop  offset="1.339685e-03" style="stop-color:#C4B097"/>
		<stop  offset="2.448532e-02" style="stop-color:#9B8B77"/>
		<stop  offset="4.953992e-02" style="stop-color:#776A5C"/>
		<stop  offset="7.772970e-02" style="stop-color:#574D43"/>
		<stop  offset="0.1089" style="stop-color:#3B352E"/>
		<stop  offset="0.1441" style="stop-color:#25211D"/>
		<stop  offset="0.1852" style="stop-color:#141210"/>
		<stop  offset="0.236" style="stop-color:#090807"/>
		<stop  offset="0.3073" style="stop-color:#020201"/>
		<stop  offset="0.5051" style="stop-color:#000000"/>
		<stop  offset="0.6545" style="stop-color:#020202"/>
		<stop  offset="0.7272" style="stop-color:#0A0908"/>
		<stop  offset="0.7834" style="stop-color:#171412"/>
		<stop  offset="0.8312" style="stop-color:#292520"/>
		<stop  offset="0.8735" style="stop-color:#423B32"/>
		<stop  offset="0.912" style="stop-color:#5F5549"/>
		<stop  offset="0.9477" style="stop-color:#837565"/>
		<stop  offset="0.9802" style="stop-color:#AB9983"/>
		<stop  offset="1" style="stop-color:#C7B299"/>
	</linearGradient>
	<path class="st4" d="M396.5,184.4H162.4c-1.1,0-2-0.9-2-2v-7.3c0-0.1,0.1-0.1,0.1-0.1h237.9c0.1,0,0.1,0,0.1,0.1v7.3
		C398.5,183.5,397.6,184.4,396.5,184.4z"/>
	<g id="Layer_12">
		<g>
			<defs>
				<path id="SVGID_4_" d="M355.5,147.8H203.3c-1.1,0-2-0.9-2-2v-30.3c0-1.1,0.9-2,2-2h152.1c1.1,0,2,0.9,2,2v30.3
					C357.5,146.9,356.6,147.8,355.5,147.8z"/>
			</defs>
			<clipPath id="SVGID_5_">
				<use xlink:href="#SVGID_4_"  style="overflow:visible;"/>
			</clipPath>
			<path class="st5" d="M354.8,148.4H204c-1.1,0-2-0.9-2-2v-31.6c0-1.1,0.9-2,2-2h150.8c1.1,0,2,0.9,2,2v31.6
				C356.8,147.5,355.9,148.4,354.8,148.4z"/>
		</g>
		<g>
			<defs>
				<path id="SVGID_6_" d="M355.5,147.8H203.3c-1.1,0-2-0.9-2-2v-30.3c0-1.1,0.9-2,2-2h152.1c1.1,0,2,0.9,2,2v30.3
					C357.5,146.9,356.6,147.8,355.5,147.8z"/>
			</defs>
			<clipPath id="SVGID_7_">
				<use xlink:href="#SVGID_6_"  style="overflow:visible;"/>
			</clipPath>
			<g class="st6">
				<ellipse class="st7" cx="226.9" cy="130.6" rx="30.6" ry="28.4"/>
				<ellipse class="st8" cx="226.9" cy="130.6" rx="17.8" ry="16.5"/>
				<ellipse class="st9" cx="226.9" cy="130.6" rx="9.7" ry="9.1"/>
				<ellipse class="st7" cx="331.9" cy="130.6" rx="30.6" ry="28.4"/>
				<ellipse class="st8" cx="331.9" cy="130.6" rx="17.8" ry="16.5"/>
				<ellipse class="st9" cx="331.9" cy="130.6" rx="9.7" ry="9.1"/>
			</g>
		</g>
	</g>
	<g id="base">
		<ellipse class="st10" cx="337.6" cy="200.4" rx="5.7" ry="4.4"/>
		<ellipse class="st10" cx="222.9" cy="200.4" rx="5.7" ry="4.4"/>
	</g>
	<rect x="189" y="90.2" class="st11" width="199.4" height="23.3"/>
	<text transform="matrix(1 0 0 1 188.9825 106.4961)" class="st9 st12 st13">Breaking Benjamin</text>
</g>
</svg>
