<?xml version="1.0" encoding="utf-8"?>
<!-- Generator: Adobe Illustrator 22.1.0, SVG Export Plug-In . SVG Version: 6.00 Build 0)  -->
<svg version="1.1" xmlns="http://www.w3.org/2000/svg" xmlns:xlink="http://www.w3.org/1999/xlink" x="0px" y="0px"
	 viewBox="0 0 560 288" style="enable-background:new 0 0 560 288;" xml:space="preserve">
<style type="text/css">
	.st0{fill:#383838;}
	.st1{fill:#EDEDEB;}
	.st2{fill:#444343;}
	.st3{fill:#FCFCFC;}
	.st4{fill:url(#SVGID_1_);}
	.st5{clip-path:url(#SVGID_3_);fill:#FFFFFF;}
	.st6{clip-path:url(#SVGID_5_);}
	.st7{fill:#383838;stroke:#474644;stroke-miterlimit:10;}
	.st8{fill:#DDDDDD;stroke:#474644;stroke-miterlimit:10;}
	.st9{fill:#FFFFFF;}
	.st10{fill:#F9F9F9;stroke:#828181;stroke-width:0.5;stroke-miterlimit:10;}
	.st11{fill:none;}
	.st12{font-family:'MyriadPro-Regular';}
	.st13{font-size:21px;}
</style>
<g id="grouped_tape">
	<g id="background">
	</g>
	<path class="st0" d="M424.6,224.9H138.2c-1.1,0-2-0.9-2-2V81.2c0-1.1,0.9-2,2-2h286.3c1.1,0,2,0.9,2,2v141.7
		C426.6,224,425.7,224.9,424.6,224.9z"/>
	<path class="st1" d="M398.5,191.8H164.4c-1.1,0-2-0.9-2-2V94.5c0-1.1,0.9-2,2-2h234.1c1.1,0,2,0.9,2,2v95.3
		C400.5,190.9,399.6,191.8,398.5,191.8z"/>
	<path class="st2" d="M374.7,224.9H188.2c-1.7,0-3.1-1.1-3.1-2.4l3.1-30.1c0-1.3-1.7,0,0,0h186.5c1.7,0,0,0,0,0l3.1,30.1
		C377.8,223.8,376.4,224.9,374.7,224.9z"/>
	<path class="st3" d="M400.1,183.5H162.6c-0.2,0-0.3-0.1-0.3-0.3V171c0-1.1,0.9-2,2-2h234.1c1.1,0,2,0.9,2,2v12.1
		C400.5,183.3,400.3,183.5,400.1,183.5z"/>
	<linearGradient id="SVGID_1_" gradientUnits="userSpaceOnUse" x1="162.4" y1="187.7" x2="400.5" y2="187.7">
		<stop  offset="0" style="stop-color:#927FED"/>
		<stop  offset="1" style="stop-color:#000000"/>
	</linearGradient>
	<path class="st4" d="M398.5,192.4H164.4c-1.1,0-2-0.9-2-2v-7.3c0-0.1,0.1-0.1,0.1-0.1h237.9c0.1,0,0.1,0,0.1,0.1v7.3
		C400.5,191.5,399.6,192.4,398.5,192.4z"/>
	<g id="Layer_12">
		<g>
			<defs>
				<path id="SVGID_2_" d="M357.5,155.8H205.3c-1.1,0-2-0.9-2-2v-30.3c0-1.1,0.9-2,2-2h152.1c1.1,0,2,0.9,2,2v30.3
					C359.5,154.9,358.6,155.8,357.5,155.8z"/>
			</defs>
			<clipPath id="SVGID_3_">
				<use xlink:href="#SVGID_2_"  style="overflow:visible;"/>
			</clipPath>
			<path class="st5" d="M356.8,156.4H206c-1.1,0-2-0.9-2-2v-31.6c0-1.1,0.9-2,2-2h150.8c1.1,0,2,0.9,2,2v31.6
				C358.8,155.5,357.9,156.4,356.8,156.4z"/>
		</g>
		<g>
			<defs>
				<path id="SVGID_4_" d="M357.5,155.8H205.3c-1.1,0-2-0.9-2-2v-30.3c0-1.1,0.9-2,2-2h152.1c1.1,0,2,0.9,2,2v30.3
					C359.5,154.9,358.6,155.8,357.5,155.8z"/>
			</defs>
			<clipPath id="SVGID_5_">
				<use xlink:href="#SVGID_4_"  style="overflow:visible;"/>
			</clipPath>
			<g class="st6">
				<ellipse class="st7" cx="228.9" cy="138.6" rx="30.6" ry="28.4"/>
				<ellipse class="st8" cx="228.9" cy="138.6" rx="17.8" ry="16.5"/>
				<ellipse class="st9" cx="228.9" cy="138.6" rx="9.7" ry="9.1"/>
				<ellipse class="st7" cx="333.9" cy="138.6" rx="30.6" ry="28.4"/>
				<ellipse class="st8" cx="333.9" cy="138.6" rx="17.8" ry="16.5"/>
				<ellipse class="st9" cx="333.9" cy="138.6" rx="9.7" ry="9.1"/>
			</g>
		</g>
	</g>
	<g id="handle">
	</g>
	<g id="base">
		<ellipse class="st10" cx="339.6" cy="208.4" rx="5.7" ry="4.4"/>
		<ellipse class="st10" cx="224.9" cy="208.4" rx="5.7" ry="4.4"/>
	</g>
	<g id="speakers">
	</g>
	<g id="rader">
	</g>
	<g id="DIALS">
	</g>
	<g id="outer_rings_speakers">
	</g>
	<g id="buttons">
	</g>
	<g id="small_top_speakers">
	</g>
	<g id="red_bar">
	</g>
	<polygon points="255.1,104.5 253.6,103.8 252.3,104.5 252.5,103 251.4,101.9 252.9,101.6 253.6,100.2 254.3,101.6 255.9,101.8 
		254.8,102.9 	"/>
</g>
<g id="title">
	<rect x="217.2" y="100.7" class="st11" width="125.7" height="19.7"/>
	<text transform="matrix(1 0 0 1 217.1668 115.5763)" class="st12 st13">Chainsmokers</text>
</g>
</svg>
