<?xml version="1.0" encoding="utf-8"?>
<!-- Generator: Adobe Illustrator 22.1.0, SVG Export Plug-In . SVG Version: 6.00 Build 0)  -->
<svg version="1.1" id="Layer_1" xmlns="http://www.w3.org/2000/svg" xmlns:xlink="http://www.w3.org/1999/xlink" x="0px" y="0px"
	 viewBox="0 0 560 288" style="enable-background:new 0 0 560 288;" xml:space="preserve">
<style type="text/css">
	.st0{fill:#383838;}
	.st1{fill:#444343;}
	.st2{fill:url(#SVGID_1_);}
	.st3{fill:#FFFFFF;}
	.st4{clip-path:url(#SVGID_3_);fill:#FFFFFF;}
	.st5{clip-path:url(#SVGID_5_);}
	.st6{fill:#383838;stroke:#474644;stroke-miterlimit:10;}
	.st7{fill:#DDDDDD;stroke:#474644;stroke-miterlimit:10;}
	.st8{fill:#F9F9F9;stroke:#828181;stroke-width:0.5;stroke-miterlimit:10;}
	.st9{fill:none;}
	.st10{font-family:'MyriadPro-Regular';}
	.st11{font-size:23px;}
</style>
<g id="red_bar">
</g>
<g>
	<path class="st0" d="M422.6,216.9H136.2c-1.1,0-2-0.9-2-2V73.2c0-1.1,0.9-2,2-2h286.3c1.1,0,2,0.9,2,2v141.7
		C424.6,216,423.7,216.9,422.6,216.9z"/>
	<path d="M396.5,183.8H162.4c-1.1,0-2-0.9-2-2V86.5c0-1.1,0.9-2,2-2h234.1c1.1,0,2,0.9,2,2v95.3
		C398.5,182.9,397.6,183.8,396.5,183.8z"/>
	<path class="st1" d="M372.7,216.9H186.2c-1.7,0-3.1-1.1-3.1-2.4l3.1-30.1c0-1.3-1.7,0,0,0h186.5c1.7,0,0,0,0,0l3.1,30.1
		C375.8,215.8,374.4,216.9,372.7,216.9z"/>
	<linearGradient id="SVGID_1_" gradientUnits="userSpaceOnUse" x1="160.3" y1="168.25" x2="398.4266" y2="168.25">
		<stop  offset="5.128205e-03" style="stop-color:#FF00FF"/>
		<stop  offset="3.076303e-02" style="stop-color:#FF08F8"/>
		<stop  offset="7.035222e-02" style="stop-color:#FF1EE3"/>
		<stop  offset="0.119" style="stop-color:#FE41C2"/>
		<stop  offset="0.1747" style="stop-color:#FE7294"/>
		<stop  offset="0.2356" style="stop-color:#FDB15A"/>
		<stop  offset="0.2897" style="stop-color:#FCEE21"/>
		<stop  offset="0.5086" style="stop-color:#76F797"/>
		<stop  offset="0.6949" style="stop-color:#00FFFF"/>
		<stop  offset="1" style="stop-color:#ED1C24"/>
	</linearGradient>
	<path class="st2" d="M398.1,175.5H160.6c-0.2,0-0.3-0.1-0.3-0.3V163c0-1.1,0.9-2,2-2h234.1c1.1,0,2,0.9,2,2v12.1
		C398.5,175.3,398.3,175.5,398.1,175.5z"/>
	<path class="st3" d="M396.5,184.4H162.4c-1.1,0-2-0.9-2-2v-7.3c0-0.1,0.1-0.1,0.1-0.1h237.9c0.1,0,0.1,0,0.1,0.1v7.3
		C398.5,183.5,397.6,184.4,396.5,184.4z"/>
	<g id="Layer_12">
		<g>
			<defs>
				<path id="SVGID_2_" d="M355.5,147.8H203.3c-1.1,0-2-0.9-2-2v-30.3c0-1.1,0.9-2,2-2h152.1c1.1,0,2,0.9,2,2v30.3
					C357.5,146.9,356.6,147.8,355.5,147.8z"/>
			</defs>
			<clipPath id="SVGID_3_">
				<use xlink:href="#SVGID_2_"  style="overflow:visible;"/>
			</clipPath>
			<path class="st4" d="M354.8,148.4H204c-1.1,0-2-0.9-2-2v-31.6c0-1.1,0.9-2,2-2h150.8c1.1,0,2,0.9,2,2v31.6
				C356.8,147.5,355.9,148.4,354.8,148.4z"/>
		</g>
		<g>
			<defs>
				<path id="SVGID_4_" d="M355.5,147.8H203.3c-1.1,0-2-0.9-2-2v-30.3c0-1.1,0.9-2,2-2h152.1c1.1,0,2,0.9,2,2v30.3
					C357.5,146.9,356.6,147.8,355.5,147.8z"/>
			</defs>
			<clipPath id="SVGID_5_">
				<use xlink:href="#SVGID_4_"  style="overflow:visible;"/>
			</clipPath>
			<g class="st5">
				<ellipse class="st6" cx="226.9" cy="130.6" rx="30.6" ry="28.4"/>
				<ellipse class="st7" cx="226.9" cy="130.6" rx="17.8" ry="16.5"/>
				<ellipse class="st3" cx="226.9" cy="130.6" rx="9.7" ry="9.1"/>
				<ellipse class="st6" cx="331.9" cy="130.6" rx="30.6" ry="28.4"/>
				<ellipse class="st7" cx="331.9" cy="130.6" rx="17.8" ry="16.5"/>
				<ellipse class="st3" cx="331.9" cy="130.6" rx="9.7" ry="9.1"/>
			</g>
		</g>
	</g>
	<g id="base">
		<ellipse class="st8" cx="337.6" cy="200.4" rx="5.7" ry="4.4"/>
		<ellipse class="st8" cx="222.9" cy="200.4" rx="5.7" ry="4.4"/>
	</g>
	<g id="music_notes">
		<circle class="st0" cx="265.9" cy="182.3" r="1.1"/>
		<rect x="266.6" y="178.3" class="st0" width="0.4" height="4"/>
		<circle class="st0" cx="278.4" cy="182.3" r="1.3"/>
		<rect x="279.2" y="177.6" class="st0" width="0.5" height="4.7"/>
		<circle class="st0" cx="283.1" cy="182.3" r="1.3"/>
		<rect x="283.9" y="177.6" class="st0" width="0.5" height="4.7"/>
		<rect x="279.2" y="177" class="st0" width="5.2" height="0.6"/>
		<circle class="st0" cx="297.1" cy="182.4" r="1.1"/>
		<rect x="297.8" y="178.4" class="st0" width="0.4" height="4"/>
	</g>
	<rect x="236.7" y="90.2" class="st9" width="89.7" height="23.3"/>
	<text transform="matrix(1 0 0 1 236.6665 106.4961)" class="st3 st10 st11">Coldplay</text>
</g>
</svg>
