<?xml version="1.0" encoding="utf-8"?>
<!-- Generator: Adobe Illustrator 22.1.0, SVG Export Plug-In . SVG Version: 6.00 Build 0)  -->
<svg version="1.1" id="Layer_1" xmlns="http://www.w3.org/2000/svg" xmlns:xlink="http://www.w3.org/1999/xlink" x="0px" y="0px"
	 viewBox="0 0 288 284" style="enable-background:new 0 0 288 284;" xml:space="preserve">
<style type="text/css">
	.st0{fill:#5E5C5C;stroke:#000000;stroke-miterlimit:10;}
	.st1{fill:none;stroke:#3A3939;stroke-miterlimit:10;}
	.st2{opacity:0.86;fill:#632ADD;stroke:#FFFFFF;stroke-width:3;stroke-miterlimit:10;enable-background:new    ;}
	.st3{fill:#EDEBEC;}
	.st4{fill:#F9F9F9;}
	.st5{fill:#C6C4C5;stroke:#666464;stroke-miterlimit:10;}
	.st6{fill:#FCFAFB;}
	.st7{fill:none;}
	.st8{font-family:'MyriadPro-Regular';}
	.st9{font-size:26px;}
	.st10{fill:#FFFFFF;}
	.st11{opacity:0.13;fill:#70C3F2;enable-background:new    ;}
	.st12{opacity:0.1;fill:#B67AF4;enable-background:new    ;}
</style>
<g>
	<circle class="st0" cx="143.2" cy="141.4" r="138.4"/>
	<ellipse class="st1" cx="143.2" cy="141.4" rx="126.1" ry="123.7"/>
	<ellipse class="st1" cx="143.2" cy="141.4" rx="117" ry="114.7"/>
	<ellipse class="st1" cx="143.2" cy="141.4" rx="102.3" ry="100.3"/>
	<ellipse class="st1" cx="143.2" cy="141.4" rx="80.1" ry="78.5"/>
	<circle class="st2" cx="143.2" cy="141.4" r="71.3"/>
	<g>
		<path class="st3" d="M196,109.7c0,0-0.3,2.1-8.6,4.8l0.8,2.8c0,0-2.4,1.5-2.3,2.6c0.1,1.2,0.1,1.2,0.1,1.2l0.3,22.3l1.2,0.5
			l0.2,0.9l-0.7,0.5l-0.6,10.5l1.9,1.7l6.3,13.2l1.5,1.2l-1.5,0.8l-0.5-1.7l-3.3-6.8l-2.9-6l-0.6-0.3l8.9,20.4h1.4l1.3,1.7l-2.4,1
			l-0.9-2.1l-8.8-20.1l-0.5-0.4l0.5,10.4l0.9,0.7l0.1,0.9l-1.6-0.2h-2.6V169h2.1l-0.5-8.6l-0.1-2.1l-1.5,0.5l0.9,1.2l0.1,1.2l-1,1
			c0,0,1.3,6.3-4,13.8l4.4,3.6l1.7,1.5l-0.9,0.5l-1.6-1l-4.1-3.7l-0.7,0.6l0.7,0.9l-1.3,0.7l-0.6-0.2c0,0-8,5.4-15,2.6l-0.5,0.8
			l-2.9-1l-0.7-0.7l-1.2,0.2v0.5l-1.6-0.6l-0.6-0.5c0,0-2.2,0.2-3.2-0.1c-1-0.3-4.7,5.3-4.7,5.3v0.9l-1,0.7l-1-0.9l0.9-1.2l3.8-5
			c0,0-0.6-0.4-1.4-0.6c-0.7-0.2-1.9,0.3-2.8-0.7l-0.5-0.8c0,0-3.9-2.9-4.8-4.1c0,0-3-4.1-3.3-8.2l-0.5-0.3c0,0-0.9-1.6,0-2.4
			c0,0,0.2-6.6,1.4-7c0,0,0.7-3.6,4.6-7.4c0,0,4.7-4.7,13.4-3.6l0.1-3c0,0-4.9-0.7-2.1-5.1l-0.4-0.8c0,0-3.5,6.5-15.2,5.2
			c0,0-4,0-3.5-5.6l-2-7.8c0,0-1-1.3,0-3c1-1.8,9-8.3,17.3-3.2l1.6,3.5c0,0,8.5-6.9,17.5-4.2l1.4,3l-0.3,1l1.9,5.1
			c0,0,2.1,0.4,2,3.2c-0.1,2.8-4.2,5-4.2,5l-0.7,0.6c0,0,11-0.9,16.3-0.7l0.1,2.1l-0.9,0.6l0.7,15.6l0.8-0.2l-0.9-36.4
			c0,0-2.3-1.9,1.4-3l0.9-1l-0.5-0.6c0,0-6.7,2.7-9.3,1.4c-2.6-1.4,8.1-4.5,8.1-4.5l-0.7-2.1l2-0.5l0.7,1.9
			C187,111,194.1,108.5,196,109.7z"/>
		<path class="st3" d="M137,140.4v9.1c0,0,1.3,0.8,0,2c-1.3,1.2-11.5,0.6-11.5,0.6l-0.5,1.2l1,1.2l-1,0.9l-0.5,1.6v11.3l2.5,0.6
			l8.1,7.7l2.5,1.7l-1.4,0.9h-1.7l-0.4-1.7l-7.5-7.1l-1.4-0.1l-0.2,7.7l-1.6-1.5v-6.2l-2.1,3.6l5.8,6.5l-2.8,0.8l-0.6-2.7
			l-15.1-19.2l-1.5,0.1l0.7,12.4l-0.7,0.3v10.3h-1.3v-11.4v-11.6l-7.3,24l0.6,1l-0.1,1.9l-1.4,0.7l-1.4-0.7l1.3-2.5l7.7-26.2
			l0.7-0.1l-1.8-30.3l-1.4-0.7l0.2-1.2l-6.8-1.4c0,0,6.8-1,7.7-1.8h1.8c0,0,3.7,1.9,7.2,1.7l-6.4,1.4l0.1,1.3l-1.3,0.8l1.6,29.6h1.6
			l12,15.8l2.2-4.3l0.2-12.4l-0.9-1.4l1-1.8l-0.4-0.8c0,0-11.4-0.5-11.7-1.3c-0.3-0.7-0.4-0.6,0.3-1.5c0.7-0.8,0.4-7.4,0.4-7.4
			s-1.3-0.2-1.5-0.6s0.7-1.6,0.7-1.6L137,140.4z"/>
	</g>
	<g>
		<path d="M195.5,110.2c0,0-0.3,2.1-8.4,4.7l0.8,2.8c0,0-2.3,1.4-2.2,2.6s0.1,1.1,0.1,1.1l0.3,21.8l1.1,0.5l0.2,0.9l-0.7,0.5
			l-0.6,10.3l1.8,1.6l6.1,12.9l1.4,1.1l-1.4,0.8l-0.5-1.6l-3.3-6.7l-2.9-5.8l-0.6-0.3l8.7,20h1.3l1.2,1.6l-2.3,1l-0.9-2.1l-8.6-19.7
			l-0.5-0.4l0.5,10.2l0.9,0.7l0.1,0.9l-1.5-0.2h-2.5v-1.2h2l-0.5-8.4l-0.1-2l-1.4,0.5l0.9,1.1l0.1,1.1l-1,1c0,0,1.2,6.2-3.9,13.5
			l4.3,3.5l1.6,1.4l-0.9,0.5l-1.5-1l-4-3.6l-0.7,0.6l0.7,0.9l-1.2,0.7l-0.6-0.2c0,0-7.7,5.3-14.6,2.6l-0.5,0.8l-2.9-1l-0.7-0.7
			l-1.1,0.2v0.5l-1.5-0.6l-0.6-0.5c0,0-2.1,0.2-3.2-0.1c-1-0.3-4.6,5.2-4.6,5.2v0.9l-1,0.7l-1-0.9l0.9-1.1l3.7-4.9
			c0,0-0.6-0.4-1.3-0.6s-1.8,0.3-2.8-0.7l-0.5-0.8c0,0-3.8-2.9-4.7-4c0,0-3-4-3.3-8l-0.5-0.3c0,0-0.9-1.5,0-2.4c0,0,0.2-6.5,1.3-6.9
			c0,0,0.7-3.5,4.5-7.3c0,0,4.6-4.6,13-3.5l0.1-3c0,0-4.8-0.7-2-5l-0.4-0.8c0,0-3.4,6.4-14.8,5.1c0,0-3.9,0-3.4-5.5l-1.9-7.7
			c0,0-1-1.2,0-3c1-1.7,8.8-8.1,16.8-3.2l1.5,3.4c0,0,8.3-6.8,17-4.1l1.3,3l-0.3,1l1.8,5c0,0,2,0.4,1.9,3.2
			c-0.1,2.8-4.1,4.9-4.1,4.9l-0.7,0.6c0,0,10.7-0.9,15.9-0.7l0.1,2.1l-0.9,0.6l0.7,15.3l0.8-0.2l-0.9-35.7c0,0-2.2-1.8,1.3-3l0.9-1
			l-0.5-0.6c0,0-6.5,2.7-9.1,1.3c-2.5-1.3,7.8-4.4,7.8-4.4l-0.7-2.1l1.9-0.5l0.7,1.8C186.7,111.5,193.6,109,195.5,110.2z"/>
		<path d="M138,140.3v8.9c0,0,1.2,0.8,0,1.9c-1.2,1.1-11.2,0.6-11.2,0.6l-0.5,1.1l1,1.1l-1,0.9l-0.5,1.5v11.1l2.4,0.6l7.8,7.6
			l2.5,1.6l-1.4,0.9h-1.6l-0.4-1.6l-7.3-7l-1.3-0.1l-0.2,7.6l-1.5-1.4v-6.1l-2,3.5l5.6,6.4l-2.8,0.8l-0.6-2.7l-14.7-18.9l-1.4,0.1
			l0.7,12.2l-0.7,0.3v10.1h-1.2v-11.2V159l-7.1,23.5l0.6,1l-0.1,1.8l-1.3,0.7l-1.3-0.7l1.2-2.5l7.5-25.6l0.7-0.1l-1.7-29.7l-1.3-0.7
			l0.2-1.1l-6.6-1.3c0,0,6.6-1,7.5-1.7h1.7c0,0,3.6,1.8,7,1.6l-6.2,1.3l0.1,1.2l-1.2,0.8l1.5,29h1.5l11.7,15.5l2.1-4.2l0.2-12.2
			l-0.9-1.3l1-1.7l-0.4-0.8c0,0-11.1-0.5-11.4-1.2c-0.3-0.7-0.4-0.6,0.3-1.4s0.4-7.3,0.4-7.3s-1.2-0.2-1.4-0.6s0.7-1.5,0.7-1.5
			L138,140.3z"/>
	</g>
	<circle class="st4" cx="143.2" cy="141.7" r="6.4"/>
	<circle class="st5" cx="143.2" cy="141.7" r="4.3"/>
	<circle class="st6" cx="144.6" cy="140.4" r="1.4"/>
	<rect x="88.9" y="99.8" class="st7" width="99.8" height="26.5"/>
	<text transform="matrix(1 0 0 1 88.9494 118.2677)" class="st8 st9">Drums</text>
	<rect x="91.1" y="99.8" class="st7" width="99.8" height="26.5"/>
	<text transform="matrix(1 0 0 1 87.5668 116.601)" class="st10 st8 st9">Drums</text>
	<ellipse class="st11" cx="197.3" cy="84.4" rx="62.6" ry="57.6"/>
	<ellipse class="st12" cx="81.2" cy="178.2" rx="66.2" ry="55.6"/>
</g>
</svg>
