<?xml version="1.0" encoding="utf-8"?>
<!-- Generator: Adobe Illustrator 22.1.0, SVG Export Plug-In . SVG Version: 6.00 Build 0)  -->
<svg version="1.1" xmlns="http://www.w3.org/2000/svg" xmlns:xlink="http://www.w3.org/1999/xlink" x="0px" y="0px"
	 viewBox="0 0 285.5 285" style="enable-background:new 0 0 285.5 285;" xml:space="preserve">
<style type="text/css">
	.st0{fill:#5E5C5C;stroke:#000000;stroke-miterlimit:10;}
	.st1{fill:none;stroke:#3A3939;stroke-miterlimit:10;}
	.st2{opacity:0.86;fill:#F91556;stroke:#FFFFFF;stroke-width:3;stroke-miterlimit:10;}
	.st3{stroke:#FFFFFF;stroke-width:2;stroke-miterlimit:10;}
	.st4{fill:#F9F9F9;}
	.st5{fill:#C6C4C5;stroke:#666464;stroke-miterlimit:10;}
	.st6{fill:#FCFAFB;}
	.st7{fill:none;}
	.st8{stroke:#000000;stroke-width:0.25;stroke-miterlimit:10;}
	.st9{font-family:'MyriadPro-Regular';}
	.st10{font-size:26px;}
	.st11{fill:#FFFFFF;}
	.st12{opacity:0.13;fill:#F96BCE;}
	.st13{opacity:0.1;fill:#D6B5F4;}
</style>
<g id="record">
	<circle class="st0" cx="143.2" cy="142.9" r="138.4"/>
	<ellipse class="st1" cx="143.2" cy="142.9" rx="126.1" ry="123.7"/>
	<ellipse class="st1" cx="143.2" cy="142.9" rx="117" ry="114.7"/>
	<ellipse class="st1" cx="143.2" cy="142.9" rx="102.3" ry="100.3"/>
	<ellipse class="st1" cx="143.2" cy="142.9" rx="80.1" ry="78.5"/>
	<circle class="st2" cx="143.2" cy="142.9" r="71.3"/>
	<g>
		<path class="st3" d="M196.7,96.6c0,0,2,4.1-1.4,5.7c0,0-5.1,0.9-6.7,4.3l-4.1,5.4c0,0-6.7,1.3-8,2.6c-1.3,1.2-43.1,43.2-43.1,43.2
			s-1,10,11.3,3.4c0,0,4.7,0.2,0.4,5.8c-3.4,4.5-4.2,4.2-7.8,5.1c0,0-6.4,2.8-6.5,4.7l-2,5.1c0,0-3.6,10.6-6.7,12.9
			c0,0-6.5,7.1-12.8,5.2c-5.4-1.6-10.9-6.3-12.2-7.6c-0.2-0.2-0.5-0.4-0.7-0.6c-2-1.5-10.2-8.9-11.4-17c-1-7.1,2.5-10.9,5.7-13.4
			c2.5-1.9,5.3-3.5,8.2-4.6l10.3-3.9c0,0,2.4-0.5,6.2-9c3.8-8.5,10.5-11.9,10.5-11.9s2.6-0.5,3.5,0.4c0.9,0.9,2.9,1.6-0.3,4.3
			c-2.6,2.1-2.6,5.4-2.6,5.4s0.9,6,5.6,4.6l39.3-35.8l0.3-3.6l3.1-2.1l17.5-9.5C192.3,95.6,194.8,94.2,196.7,96.6z"/>
		<path class="st3" d="M191.5,96.2l-0.2-0.6l0.6-0.6l-0.6-1.1c0,0-1.6-0.6-2.4,1.1l0.5,1.3l0.9-0.2l0.3,0.8L191.5,96.2z"/>
		<path class="st3" d="M188.3,97.8l-0.2-0.6l0.6-0.6l-0.6-1.1c0,0-1.6-0.6-2.4,1.1l0.5,1.3l0.9-0.2l0.3,0.8L188.3,97.8z"/>
		<path class="st3" d="M185.2,99.5l-0.2-0.6l0.6-0.6l-0.6-1.1c0,0-1.6-0.6-2.4,1.1l0.5,1.3l0.9-0.2l0.3,0.8L185.2,99.5z"/>
		<path class="st3" d="M181.9,101.4l-0.2-0.6l0.6-0.6l-0.6-1.1c0,0-1.6-0.6-2.4,1.1l0.5,1.3l0.9-0.2l0.3,0.8L181.9,101.4z"/>
		<path class="st3" d="M178.5,103l-0.2-0.6l0.6-0.6l-0.6-1.1c0,0-1.6-0.6-2.4,1.1l0.5,1.3l0.9-0.2l0.3,0.8L178.5,103z"/>
		<path class="st3" d="M175.3,105l-0.2-0.6l0.6-0.6l-0.6-1.1c0,0-1.6-0.6-2.4,1.1l0.5,1.3l0.9-0.2l0.3,0.8L175.3,105z"/>
	</g>
	<g>
		<path d="M196.7,95.9c0,0,2,4.1-1.4,5.7c0,0-5.1,0.9-6.7,4.3l-4.1,5.4c0,0-6.7,1.3-8,2.6c-1.3,1.2-43.1,43.2-43.1,43.2
			s-1,10,11.3,3.4c0,0,4.7,0.2,0.4,5.8c-3.4,4.5-4.2,4.2-7.8,5.1c0,0-6.4,2.8-6.5,4.7l-2,5.1c0,0-3.6,10.6-6.7,12.9
			c0,0-6.5,7.1-12.8,5.2c-5.4-1.6-10.9-6.3-12.2-7.6c-0.2-0.2-0.5-0.4-0.7-0.6c-2-1.5-10.2-8.9-11.4-17c-1-7.1,2.5-10.9,5.7-13.4
			c2.5-1.9,5.3-3.5,8.2-4.6l10.3-3.9c0,0,2.4-0.5,6.2-9c3.8-8.5,10.5-11.9,10.5-11.9s2.6-0.5,3.5,0.4c0.9,0.9,2.9,1.6-0.3,4.3
			c-2.6,2.1-2.6,5.4-2.6,5.4s0.9,6,5.6,4.6l39.3-35.8l0.3-3.6l3.1-2.1l17.5-9.5C192.3,94.9,194.8,93.5,196.7,95.9z"/>
		<path d="M191.5,95.5l-0.2-0.6l0.6-0.6l-0.6-1.1c0,0-1.6-0.6-2.4,1.1l0.5,1.3l0.9-0.2l0.3,0.8L191.5,95.5z"/>
		<path d="M188.3,97.1l-0.2-0.6l0.6-0.6l-0.6-1.1c0,0-1.6-0.6-2.4,1.1l0.5,1.3l0.9-0.2l0.3,0.8L188.3,97.1z"/>
		<path d="M185.2,98.8l-0.2-0.6l0.6-0.6l-0.6-1.1c0,0-1.6-0.6-2.4,1.1l0.5,1.3l0.9-0.2l0.3,0.8L185.2,98.8z"/>
		<path d="M181.9,100.6l-0.2-0.6l0.6-0.6l-0.6-1.1c0,0-1.6-0.6-2.4,1.1l0.5,1.3l0.9-0.2l0.3,0.8L181.9,100.6z"/>
		<path d="M178.5,102.3l-0.2-0.6l0.6-0.6l-0.6-1.1c0,0-1.6-0.6-2.4,1.1l0.5,1.3l0.9-0.2l0.3,0.8L178.5,102.3z"/>
		<path d="M175.3,104.3l-0.2-0.6l0.6-0.6l-0.6-1.1c0,0-1.6-0.6-2.4,1.1l0.5,1.3l0.9-0.2l0.3,0.8L175.3,104.3z"/>
	</g>
	<circle class="st4" cx="143.2" cy="143.2" r="6.4"/>
	<circle class="st5" cx="143.2" cy="143.2" r="4.3"/>
	<circle class="st6" cx="144.6" cy="141.9" r="1.4"/>
	<rect x="88.9" y="101.3" class="st7" width="99.8" height="26.5"/>
	<text transform="matrix(1 0 0 1 88.9494 119.7677)" class="st8 st9 st10">Guitar</text>
	<rect x="91.1" y="101.3" class="st7" width="99.8" height="26.5"/>
	<text transform="matrix(1 0 0 1 91.1449 119.7677)" class="st11 st9 st10">Guitar</text>
</g>
<g id="SHINES">
	<ellipse class="st12" cx="197.3" cy="85.9" rx="62.6" ry="57.6"/>
	<ellipse class="st13" cx="81.2" cy="179.7" rx="66.2" ry="55.6"/>
</g>
</svg>
