<?xml version="1.0" encoding="utf-8"?>
<!-- Generator: Adobe Illustrator 22.1.0, SVG Export Plug-In . SVG Version: 6.00 Build 0)  -->
<svg version="1.1" xmlns="http://www.w3.org/2000/svg" xmlns:xlink="http://www.w3.org/1999/xlink" x="0px" y="0px"
	 viewBox="0 0 576 594" style="enable-background:new 0 0 576 594;" xml:space="preserve">
<style type="text/css">
	.st0{fill:#FAFEFF;stroke:#F8FEFF;stroke-miterlimit:10;}
	.st1{fill:#FCFCFC;}
	.st2{fill:#FFFFFF;stroke:#FFFDFD;stroke-width:2;stroke-miterlimit:10;}
	.st3{fill:#544147;stroke:#4F2D2D;stroke-width:3;stroke-miterlimit:10;}
	.st4{fill:#6B4443;stroke:#602929;stroke-width:2;stroke-miterlimit:10;}
	.st5{fill:#874646;stroke:#823C43;stroke-width:6;stroke-miterlimit:10;}
	.st6{fill:#874646;}
	.st7{fill:#B5A9A9;}
	.st8{fill:#EFCACA;}
	.st9{fill:#F7E7E7;}
	.st10{fill:none;stroke:#E2E2E2;stroke-miterlimit:10;}
	.st11{fill:#604B4B;stroke:#E2E2E2;stroke-miterlimit:10;}
	.st12{fill:#E2E2E2;}
	.st13{clip-path:url(#SVGID_2_);fill:#7F6363;}
	.st14{fill:#6F8389;stroke:#F8FCFE;stroke-miterlimit:10;}
	.st15{fill:#576D72;}
	.st16{fill:none;stroke:#51686D;stroke-miterlimit:10;}
	.st17{fill:#D3846C;stroke:#F8FCFE;stroke-miterlimit:10;}
	.st18{fill:#D3DBDD;stroke:#F8FEFF;stroke-miterlimit:10;}
	.st19{fill:#F8FEFF;stroke:#D3DBDD;stroke-miterlimit:10;}
	.st20{fill:#FFFFFF;}
	.st21{fill:none;stroke:#FFFFFF;stroke-miterlimit:10;}
	.st22{fill:#727272;}
	.st23{fill:#514E4F;}
	.st24{fill:#595355;}
</style>
<g id="Layer_10">
</g>
<g id="main_outline">
	<path class="st0" d="M526.6,286.1H54.1c-3.8,0-7-3.2-7-7V15.7c0-3.9,3.2-7,7-7h472.5c3.9,0,7,3.1,7,7v263.4
		C533.6,283,530.4,286.1,526.6,286.1z"/>
	<polygon class="st1" points="573,521.7 6.3,521.7 46.7,280.6 534.6,280.6 	"/>
	<rect x="8.2" y="521.7" class="st2" width="562.8" height="62.6"/>
</g>
<g id="RECORD_ABSE">
	<polygon class="st3" points="567.9,521.7 12.4,521.7 52,288 530.3,288 	"/>
	<rect x="12.4" y="521.7" class="st4" width="555.5" height="58.6"/>
</g>
<g id="back_of_record">
	<path class="st3" d="M523,281.9H58c-3.8,0-7-3.1-7-7V20.7c0-3.8,3.2-7,7-7h465c3.8,0,7,3.2,7,7v254.2
		C530,278.7,526.8,281.9,523,281.9z"/>
	<rect x="64.3" y="25.9" class="st5" width="452" height="243"/>
	<path class="st6" d="M118.5,293.4H110c-3.8,0-7-3.1-7-7V264c0-3.9,3.2-7,7-7h8.5c3.8,0,7,3.1,7,7v22.4
		C125.5,290.2,122.3,293.4,118.5,293.4z"/>
	<path class="st6" d="M470.5,293.4H462c-3.9,0-7-3.1-7-7V270c0-3.9,3.1-7,7-7h8.5c3.9,0,7,3.1,7,7v16.4
		C477.5,290.2,474.4,293.4,470.5,293.4z"/>
	<ellipse class="st7" cx="114.7" cy="292.8" rx="15.7" ry="4.8"/>
	<ellipse class="st7" cx="466.3" cy="289.8" rx="15.7" ry="4.8"/>
	<ellipse class="st7" cx="114.4" cy="264.5" rx="15.7" ry="4.8"/>
	<ellipse class="st7" cx="465.9" cy="261.5" rx="15.7" ry="4.8"/>
	<path class="st8" d="M314.3,555H265c-2.2,0-4-1.8-4-4v-20.7c0-2.2,1.8-4,4-4h49.3c2.2,0,4,1.8,4,4V551
		C318.3,553.2,316.5,555,314.3,555z"/>
	<path class="st8" d="M324.3,569.5H255c-2.2,0-4-1.8-4-4v-20.7c0-2.2,1.8-4,4-4h69.3c2.2,0,4,1.8,4,4v20.7
		C328.3,567.7,326.5,569.5,324.3,569.5z"/>
	<path class="st9" d="M324.2,19.2H275c-2.2,0-4,1.8-4,4v11.1c0,2.2,1.8,4,4,4h49.3c2.2,0,4-1.8,4-4V23.2
		C328.2,21,326.4,19.2,324.2,19.2z"/>
	<path class="st9" d="M334.2,9.7H265c-2.2,0-4,1.8-4,4v11.1c0,2.2,1.8,4,4,4h69.2c2.2,0,4-1.8,4-4V13.7
		C338.2,11.5,336.4,9.7,334.2,9.7z"/>
</g>
<g id="dial">
	<ellipse class="st10" cx="473" cy="469" rx="34.7" ry="12.7"/>
	<path class="st11" d="M482.1,472.3h-19c-6,0-14-1.2-14-6.4l3-34.4c0-5.2,5-9.5,11-9.5h19c6.1,0,11,4.3,11,9.5l2.7,35.9
		C495.8,472.7,488.2,472.3,482.1,472.3z"/>
	<path class="st12" d="M463.1,467.5L463.1,467.5c-0.9-0.1-1.6-0.8-1.5-1.7l1.7-25.7c0.1-0.9,0.8-1.6,1.7-1.5l0,0
		c0.9,0.1,1.6,0.8,1.5,1.7l-1.7,25.7C464.8,466.8,464,467.5,463.1,467.5z"/>
</g>
<g id="clipping_mask_dial">
	<defs>
		<path id="SVGID_1_" d="M482,472.3h-18.8c-6,0-13.9-1.2-13.9-6.3l3-33.9c0-5.2,4.9-9.4,10.9-9.4H482c6,0,10.9,4.2,10.9,9.4
			l2.7,35.5C495.6,472.7,488,472.3,482,472.3z"/>
	</defs>
	<clipPath id="SVGID_2_">
		<use xlink:href="#SVGID_1_"  style="overflow:visible;"/>
	</clipPath>
	<ellipse class="st13" cx="472.5" cy="428.7" rx="19.4" ry="8.4"/>
</g>
<g id="record">
	<g>
		<ellipse class="st14" cx="238.5" cy="380.1" rx="230" ry="78.1"/>
		<ellipse class="st15" cx="238.5" cy="374.4" rx="103.3" ry="37.3"/>
		<ellipse class="st16" cx="239.2" cy="377.8" rx="217.4" ry="72.7"/>
		<ellipse class="st17" cx="239.2" cy="367.6" rx="75.3" ry="20.8"/>
		<ellipse class="st16" cx="239.2" cy="377.8" rx="203.7" ry="66.4"/>
		<path class="st18" d="M244.6,367.6c0.7-2.7,1.1-5.9,1.1-9.3c0-9.8-3.2-17.8-7.3-17.8c-4,0-7.3,7.9-7.3,17.8c0,3.4,0.4,6.6,1.1,9.3
			H244.6z"/>
		<ellipse class="st16" cx="239.1" cy="372.1" rx="179.3" ry="57.3"/>
		
			<ellipse transform="matrix(0.9249 -0.3802 0.3802 0.9249 -114.52 116.8042)" class="st19" cx="238.5" cy="348.3" rx="1.9" ry="4"/>
		<ellipse class="st16" cx="241.1" cy="371.5" rx="134.7" ry="45.7"/>
	</g>
</g>
<g id="outline">
	<polygon class="st20" points="378,403.6 372.6,400.2 369.3,394.9 373,393.6 376.5,391.3 378.4,397 	"/>
	<path class="st21" d="M386.2,371.9l-37.6,14.8c-2,0.8-4.4-0.2-5.2-2.3l-5.6-14.2c-0.8-2,0.2-4.4,2.3-5.2l37.6-14.8
		c2-0.8,4.4,0.2,5.2,2.3l5.6,14.2C389.3,368.7,388.3,371.1,386.2,371.9z"/>
	
		<ellipse transform="matrix(0.9301 -0.3672 0.3672 0.9301 -115.9718 162.7464)" class="st21" cx="369.7" cy="386.2" rx="43.7" ry="10.9"/>
	<ellipse class="st21" cx="491.7" cy="322.6" rx="39" ry="13.4"/>
	<path class="st21" d="M503.7,313.3l-26.6,0.1c-2.2,0-4-1.8-4-4l0-7.2c0-2.2,1.8-4,4-4l26.6-0.1c2.2,0,4,1.8,4,4l0,7.2
		C507.7,311.5,505.9,313.3,503.7,313.3z"/>
	
		<ellipse transform="matrix(1 -3.196933e-03 3.196933e-03 1 -1.0153 1.5688)" class="st20" cx="490.2" cy="318.4" rx="31.5" ry="6.9"/>
	<path class="st21" d="M485.3,308.7l-119.4,55.9c-2,0.9-4.4,0.1-5.3-1.9l-0.9-1.9c-0.9-2-0.1-4.4,1.9-5.3l119.4-55.9
		c2-0.9,4.4-0.1,5.3,1.9l0.9,1.9C488.2,305.4,487.3,307.8,485.3,308.7z"/>
</g>
<g id="Scratcher">
	<polygon class="st22" points="377.7,402.7 372.6,399.6 369.6,394.5 373,393.4 376.3,391.2 378.1,396.5 	"/>
	<path class="st23" d="M385.5,371.9L349,386.3c-2,0.8-4.4-0.2-5.2-2.3l-5.4-13.6c-0.8-2,0.2-4.4,2.3-5.2l36.5-14.4
		c2-0.8,4.4,0.2,5.2,2.3l5.4,13.6C388.5,368.7,387.5,371,385.5,371.9z"/>
	
		<ellipse transform="matrix(0.9301 -0.3672 0.3672 0.9301 -115.9517 162.8576)" class="st23" cx="370" cy="386.2" rx="43.4" ry="10.5"/>
	<ellipse class="st24" cx="491.9" cy="322.9" rx="38.8" ry="13"/>
	<path class="st23" d="M503.7,312.9l-26.3,0.1c-2.2,0-4-1.8-4-4l0-6.8c0-2.2,1.8-4,4-4l26.3-0.1c2.2,0,4,1.8,4,4l0,6.8
		C507.7,311.1,505.9,312.9,503.7,312.9z"/>
	
		<ellipse transform="matrix(1 -3.196933e-03 3.196933e-03 1 -1.0139 1.5699)" class="st23" cx="490.6" cy="317.9" rx="31.5" ry="6.9"/>
	<path class="st23" d="M488.2,307.4l-121.5,56.9c-2,0.9-4.4,0.1-5.3-1.9l-0.7-1.4c-0.9-2-0.1-4.4,1.9-5.3l121.5-56.9
		c2-0.9,4.4-0.1,5.3,1.9l0.7,1.4C491.1,304,490.2,306.4,488.2,307.4z"/>
</g>
<g id="Layer_8">
	<path class="st3" d="M223.7,547.7H36c-2.2,0-4-1.8-4-4V539c0-2.2,1.8-4,4-4h187.7c2.2,0,4,1.8,4,4v4.7
		C227.7,545.9,225.9,547.7,223.7,547.7z"/>
	<path class="st3" d="M223.7,573.6H36c-2.2,0-4-1.8-4-4V565c0-2.2,1.8-4,4-4h187.7c2.2,0,4,1.8,4,4v4.7
		C227.7,571.8,225.9,573.6,223.7,573.6z"/>
	<path class="st3" d="M552.2,547.7H364.5c-2.2,0-4-1.8-4-4V539c0-2.2,1.8-4,4-4h187.7c2.2,0,4,1.8,4,4v4.7
		C556.2,545.9,554.4,547.7,552.2,547.7z"/>
	<path class="st3" d="M552.2,573.6H364.5c-2.2,0-4-1.8-4-4V565c0-2.2,1.8-4,4-4h187.7c2.2,0,4,1.8,4,4v4.7
		C556.2,571.8,554.4,573.6,552.2,573.6z"/>
</g>
</svg>
